 <?xml version="1.0" encoding="iso-8859-1"?>
<!-- Uploaded to: SVG Repo, www.svgrepo.com, Generator: SVG Repo Mixer Tools -->
<svg version="1.1" id="Layer_1" xmlns="http://www.w3.org/2000/svg" xmlns:xlink="http://www.w3.org/1999/xlink" 
	 viewBox="0 0 512.003 512.003" xml:space="preserve">
<rect x="176.007" y="104.092" style="fill:#808080;" width="335.995" height="400.32"/>
<polygon style="fill:#666666;" points="272.007,503.949 176.008,504.414 176.46,96.151 386.909,96.495 "/>
<rect x="216.131" y="392.09" style="fill:#FBB03B;" width="56.38" height="23.999"/>
<polygon style="fill:#C7B299;" points="511.609,0.096 0.011,0.096 0.011,384.317 144.094,384.317 144.094,63.785 511.609,63.785 "/>
<rect x="0.011" y="417.92" style="fill:#998675;" width="143.999" height="78.164"/>
<rect x="0.011" y="417.92" style="fill:#736357;" width="47.999" height="78.164"/>
<rect x="0.011" y="384.03" style="fill:#FBB03B;" width="143.999" height="32.06"/>
<rect x="0.011" y="384.03" style="fill:#F7931E;" width="39.999" height="32.06"/>
<polygon style="fill:#FF1D25;" points="511.609,63.785 144.094,63.785 144.094,504.386 176.46,504.386 176.46,96.151 
	511.609,96.151 "/>
<rect x="8.011" y="96.491" style="fill:#FBB03B;" width="136.002" height="231.597"/>
<polygon style="fill:#F7931E;" points="40.011,328.091 8.011,328.091 8.011,96.495 128.009,96.095 "/>
<path style="fill:#FF1D25;" d="M512.003,392.09H232.007c-13.255,0-23.999-10.745-23.999-23.999l0,0
	c0-13.255,10.745-23.999,23.999-23.999h279.995"/>
<g>
	<polygon style="fill:#FFFFFF;" points="344.005,343.598 264.163,343.598 264.163,391.625 296.006,391.625 	"/>
	<polygon style="fill:#FFFFFF;" points="440.004,392.09 368.004,392.09 416.004,344.091 488.002,344.091 	"/>
</g>
<rect x="248.171" y="247.946" transform="matrix(-5.199999e-004 -1 1 -5.199999e-004 -247.8084 760.2065)" width="15.661" height="511.995"/>
<rect x="231.792" y="360.298" style="fill:#FFFFFF;" width="15.661" height="15.661"/>
<polygon points="231.796,488.725 216.135,488.725 216.135,407.286 272.515,407.286 272.515,422.948 231.796,422.948 "/>
<path d="M512.003,351.921V336.26H232.007c-17.552,0-31.83,14.279-31.83,31.83s14.279,31.83,31.83,31.83h279.995v-15.661h-53.093
	l32.338-32.338h20.755V351.921z M347.248,351.921h49.851l-32.338,32.338h-49.85L347.248,351.921z M292.762,384.259h-20.247v-32.338
	H325.1L292.762,384.259z M215.838,368.091c0-8.915,7.253-16.169,16.169-16.169h24.847v32.338h-24.847
	C223.092,384.259,215.838,377.006,215.838,368.091z M436.76,384.259h-49.851l32.338-32.338h49.849L436.76,384.259z"/>
<polygon points="183.769,488.725 168.107,488.725 168.107,88.843 511.609,88.843 511.609,104.504 183.769,104.504 "/>
<path d="M151.84,335.922H0.18V88.264h151.66V335.922z M15.841,320.261h120.337V103.926H15.841V320.261z"/>
<path style="fill:#FFFFFF;" d="M48.038,272.6H32.377V120.165h87.703v79.35H48.038C48.038,199.515,48.038,272.6,48.038,272.6z
	 M48.038,183.854h56.38v-48.028h-56.38C48.038,135.826,48.038,183.854,48.038,183.854z"/>
<rect x="72.048" y="256.945" width="48.028" height="15.661"/>
<rect x="72.048" y="231.887" width="48.028" height="15.661"/>
<rect x="31.329" y="288.256" width="16.705" height="15.661"/>
<rect x="55.343" y="288.256" style="fill:#FFFFFF;" width="16.705" height="15.661"/>
<rect x="79.357" y="288.256" width="16.705" height="15.661"/>
<rect x="104.414" y="288.256" style="fill:#FFFFFF;" width="15.661" height="15.661"/>
<polygon points="152.446,79.446 136.785,79.446 136.785,55.432 511.609,55.432 511.609,71.093 152.446,71.093 "/>
<polygon points="136.785,343.598 136.785,375.964 0.011,375.964 0.011,391.625 136.785,391.625 136.785,407.286 0.011,407.286 
	0.011,422.948 136.785,422.948 136.785,488.725 152.446,488.725 152.446,343.598 "/>
<g>
	<rect x="24.01" y="440.086" style="fill:#C7B299;" width="47.999" height="23.999"/>
	<rect x="48.01" y="456.092" style="fill:#C7B299;" width="47.999" height="23.999"/>
</g>
</svg>