<svg xmlns="http://www.w3.org/2000/svg" viewBox="0 0 512 512" id="gas-cylinder">
  <path fill="#e4222e" d="M179.5 37.5h33.001v85H179.5zM299.5 37.5h33.001v85H299.5z"></path>
  <path fill="#fddd5a" d="M256 130a7.5 7.5 0 0 1-7.5-7.5v-31a7.5 7.5 0 0 1 15 0v31a7.5 7.5 0 0 1-7.5 7.5Z"></path>
  <path fill="#fddd5a" d="M274.817 93.922h-37.634a7.5 7.5 0 0 1 0-15h37.634a7.5 7.5 0 0 1 0 15Z"></path>
  <path fill="#e4222e" d="M362.5 448v26.5a30 30 0 0 1-30 30h-153a30 30 0 0 1-30-30V448"></path>
  <path fill="#c0232c" d="M317.5 448v26.5a30 30 0 0 1-30 30h45a30 30 0 0 0 30-30V448Z"></path>
  <rect width="272" height="333" x="120" y="122.5" fill="#eb304a" rx="60"></rect>
  <path fill="#e4222e" d="M332 122.5h-45a60 60 0 0 1 60 60v213a60 60 0 0 1-60 60h45a60 60 0 0 0 60-60v-213a60 60 0 0 0-60-60Z"></path>
  <rect width="210" height="30" x="151" y="7.5" fill="#eb304a" rx="15"></rect>
  <path fill="#e4222e" d="M346 7.5h-45a15 15 0 0 1 0 30h45a15 15 0 0 0 0-30Z"></path>
  <path fill="#fddd5a" d="M273.224 368.106c-25.887 11.652-59.55-1.561-70.364-28.034-7.131-17.458-.614-35.926-.112-37.232 6.184-16.092 17.595-19.02 23.393-35.586 3.998-11.424 2.839-22.224 1.363-29.288a68.038 68.038 0 0 1 12.3 15.903 97.003 97.003 0 0 1 5.9 12.266 48.932 48.932 0 0 1 2.016 6.664c.462 2.074.288 4.201.77 6.237 1.487 6.276 7.56-3.677 8.599-5.402a34.482 34.482 0 0 0 5.04-15.469 36.879 36.879 0 0 0-3.66-18.685c-.4-.816-2.327-5.286-3.248-5.368a52.446 52.446 0 0 1 13.485 3.008c26.446 9.75 46.878 42.446 43.7 75.418-2.232 23.162-18.056 46.06-39.182 55.568Z"></path>
  <path fill="#fed030" d="M226.141 267.254a42.822 42.822 0 0 1-7.223 12.951c1.974 3.6 7.212-4.98 8.17-6.57a34.481 34.481 0 0 0 5.04-15.47 36.88 36.88 0 0 0-3.658-18.685c-.09-.184-.261-.56-.478-1.023-.164-.163-.323-.33-.488-.49 1.476 7.063 2.635 17.863-1.363 29.287zm42.565-30.134a52.446 52.446 0 0 0-13.485-3.008c.92.082 2.849 4.552 3.249 5.368a36.544 36.544 0 0 1 2.337 6.104 37.062 37.062 0 0 1 1.33 7.724c13.86 15.029 22.406 37.061 20.269 59.23-2.232 23.162-18.056 46.06-39.182 55.568a47.226 47.226 0 0 1-5.55 2.075c11.649 3.348 24.33 2.976 35.55-2.075 21.126-9.508 36.95-32.406 39.182-55.568 3.178-32.972-17.254-65.667-43.7-75.418z"></path>
  <path fill="#f9a242" d="M280.149 343.82c-.607 8.958-5.343 25.27-18.84 28.405-13.607 3.16-28.885-8.355-29.51-19.188-.454-7.853 6.82-14.874 8.588-16.581 6.78-6.544 11.715-5.662 15.463-11.045 2.298-3.3 4.213-9.106 1.22-19.93 14.994 8.68 24.09 23.42 23.079 38.338Z"></path>
  <path fill="#f69531" d="M257.07 305.48c1.79 6.475 1.818 11.143 1.065 14.564a37.297 37.297 0 0 1 7.014 23.775c-.567 8.374-4.744 23.17-16.31 27.627a22.998 22.998 0 0 0 12.47.78c13.497-3.136 18.233-19.448 18.84-28.407 1.01-14.918-8.085-29.659-23.079-38.338Z"></path>
  <path d="M478.87 460.523a1.5 1.5 0 0 0 0-3 1.5 1.5 0 0 0 0 3Z"></path>
</svg>
